<svg id="_x32_" style="height:256px;width:256px" version="1.1" viewBox="0 0 512 512" xml:space="preserve" xmlns="http://www.w3.org/2000/svg">
<style type="text/css">
	.st0{fill:#4B4B4B;}
</style>
<g fill="#808080">
	<path class="st0" d="m451.8 40.04h-391.6c-33.19 0-60.21 27.02-60.21 60.22v295.5c0 43.11 35.07 78.19 78.18 78.19h355.6c43.11 0 78.18-35.08 78.18-78.19v-295.5c0-33.19-27.02-60.22-60.21-60.22zm29.79 355.7c0 26.34-21.43 47.76-47.76 47.76h-355.6c-26.33 0-47.76-21.42-47.76-47.76v-295.5c0-16.43 13.37-29.79 29.79-29.79h391.6c16.42 0 29.79 13.36 29.79 29.79z"/>
	<path class="st0" d="m163 319.3h32.64c4.986 0 9.028-4.042 9.028-9.028v-32.64c0-4.986-4.042-9.028-9.028-9.028h-32.64c-4.987 0-9.029 4.042-9.029 9.028v32.64c0 4.986 4.042 9.028 9.029 9.028z"/>
	<path class="st0" d="m239 319.3h32.63c4.987 0 9.029-4.042 9.029-9.028v-32.64c0-4.986-4.042-9.028-9.029-9.028h-32.63c-4.986 0-9.029 4.042-9.029 9.028v32.64c0 4.986 4.043 9.028 9.029 9.028z"/>
	<path class="st0" d="m315 319.3h32.64c4.986 0 9.029-4.042 9.029-9.028v-32.64c0-4.986-4.043-9.028-9.029-9.028h-32.64c-4.986 0-9.029 4.042-9.029 9.028v32.64c0 4.986 4.043 9.028 9.029 9.028z"/>
	<path class="st0" d="m437.1 344.7h-32.63c-4.986 0-9.028 4.043-9.028 9.029v32.63c0 4.986 4.042 9.029 9.028 9.029h32.63c4.986 0 9.029-4.043 9.029-9.029v-32.63c0-4.986-4.044-9.029-9.029-9.029z"/>
	<path class="st0" d="m163 243.3h32.64c4.986 0 9.028-4.043 9.028-9.029v-32.63c0-4.986-4.042-9.028-9.028-9.028h-32.64c-4.987 0-9.029 4.042-9.029 9.028v32.63c0 4.986 4.042 9.029 9.029 9.029z"/>
	
	
	
	<path class="st0" d="m239 243.3h32.63c4.987 0 9.029-4.043 9.029-9.029v-32.63c0-4.986-4.042-9.028-9.029-9.028h-32.63c-4.986 0-9.029 4.042-9.029 9.028v32.63c0 4.986 4.043 9.029 9.029 9.029z"/>
	<path class="st0" d="m315 243.3h32.64c4.986 0 9.029-4.043 9.029-9.029v-32.63c0-4.986-4.043-9.028-9.029-9.028h-32.64c-4.986 0-9.029 4.042-9.029 9.028v32.63c0 4.986 4.043 9.029 9.029 9.029z"/>
	<path class="st0" d="m351.8 344.7h-189.7c-4.503 0-8.153 4.043-8.153 9.029v32.63c0 4.986 3.65 9.029 8.153 9.029h189.7c4.502 0 8.152-4.043 8.152-9.029v-32.63c0-4.986-3.651-9.029-8.152-9.029z" stroke-width=".9503"/>
	<path class="st0" d="m440 192.6h-39.4c-3.389 0-6.135 4.042-6.135 9.028v108.7c0 4.986 2.746 9.028 6.135 9.028h39.4c3.388 0 6.135-4.042 6.135-9.028v-108.7c0-4.986-2.748-9.028-6.135-9.028z" stroke-width=".8243"/>
<path class="st0" d="m163.7 163.3h32.64c4.986 0 9.028-4.043 9.028-9.029v-32.63c0-4.986-4.042-9.028-9.028-9.028h-32.64c-4.987 0-9.029 4.042-9.029 9.028v32.63c0 4.986 4.042 9.029 9.029 9.029z"/><path class="st0" d="m239.8 163.3h32.63c4.987 0 9.029-4.043 9.029-9.029v-32.63c0-4.986-4.042-9.028-9.029-9.028h-32.63c-4.986 0-9.029 4.042-9.029 9.028v32.63c0 4.986 4.043 9.029 9.029 9.029z"/><path class="st0" d="m315.8 163.3h32.64c4.986 0 9.029-4.043 9.029-9.029v-32.63c0-4.986-4.043-9.028-9.029-9.028h-32.64c-4.986 0-9.029 4.042-9.029 9.028v32.63c0 4.986 4.043 9.029 9.029 9.029z"/></g>
</svg>
